<mxfile host="Electron" agent="Mozilla/5.0 (Windows NT 10.0; Win64; x64) AppleWebKit/537.36 (KHTML, like Gecko) draw.io/28.1.2 Chrome/138.0.7204.243 Electron/37.4.0 Safari/537.36" version="28.1.2">
  <diagram name="第 1 页" id="EDp3G40rQHVfG3d7pGEE">
    <mxGraphModel dx="913" dy="499" grid="1" gridSize="10" guides="1" tooltips="1" connect="1" arrows="0" fold="1" page="1" pageScale="1" pageWidth="827" pageHeight="1169" math="0" shadow="0">
      <root>
        <mxCell id="0" />
        <mxCell id="1" parent="0" />
        <mxCell id="7sq4FqvOHcfhc_V7E_Is-4" style="edgeStyle=orthogonalEdgeStyle;rounded=0;orthogonalLoop=1;jettySize=auto;html=1;" parent="1" source="7sq4FqvOHcfhc_V7E_Is-1" target="7sq4FqvOHcfhc_V7E_Is-2" edge="1">
          <mxGeometry relative="1" as="geometry" />
        </mxCell>
        <mxCell id="7sq4FqvOHcfhc_V7E_Is-1" value="详细设计" style="rounded=1;whiteSpace=wrap;html=1;" parent="1" vertex="1">
          <mxGeometry x="160" y="200" width="120" height="40" as="geometry" />
        </mxCell>
        <mxCell id="7sq4FqvOHcfhc_V7E_Is-5" style="edgeStyle=orthogonalEdgeStyle;rounded=0;orthogonalLoop=1;jettySize=auto;html=1;" parent="1" source="7sq4FqvOHcfhc_V7E_Is-2" target="7sq4FqvOHcfhc_V7E_Is-3" edge="1">
          <mxGeometry relative="1" as="geometry" />
        </mxCell>
        <mxCell id="7sq4FqvOHcfhc_V7E_Is-2" value="代码" style="rounded=1;whiteSpace=wrap;html=1;" parent="1" vertex="1">
          <mxGeometry x="360" y="200" width="120" height="40" as="geometry" />
        </mxCell>
        <mxCell id="7sq4FqvOHcfhc_V7E_Is-8" style="edgeStyle=orthogonalEdgeStyle;rounded=0;orthogonalLoop=1;jettySize=auto;html=1;" parent="1" source="7sq4FqvOHcfhc_V7E_Is-3" edge="1">
          <mxGeometry relative="1" as="geometry">
            <mxPoint x="759.9999999999998" y="220" as="targetPoint" />
          </mxGeometry>
        </mxCell>
        <mxCell id="7sq4FqvOHcfhc_V7E_Is-3" value="测试" style="rounded=1;whiteSpace=wrap;html=1;" parent="1" vertex="1">
          <mxGeometry x="560" y="200" width="120" height="40" as="geometry" />
        </mxCell>
        <mxCell id="7sq4FqvOHcfhc_V7E_Is-6" value="" style="endArrow=none;html=1;rounded=0;fillColor=#f8cecc;strokeColor=#b85450;strokeWidth=2;" parent="1" edge="1">
          <mxGeometry width="50" height="50" relative="1" as="geometry">
            <mxPoint x="750" y="250" as="sourcePoint" />
            <mxPoint x="800" y="200" as="targetPoint" />
          </mxGeometry>
        </mxCell>
        <mxCell id="7sq4FqvOHcfhc_V7E_Is-7" value="" style="endArrow=none;html=1;rounded=0;fillColor=#f8cecc;strokeColor=#b85450;strokeWidth=2;" parent="1" edge="1">
          <mxGeometry width="50" height="50" relative="1" as="geometry">
            <mxPoint x="800" y="250" as="sourcePoint" />
            <mxPoint x="750" y="200" as="targetPoint" />
          </mxGeometry>
        </mxCell>
        <mxCell id="7sq4FqvOHcfhc_V7E_Is-9" value="" style="endArrow=classic;html=1;rounded=0;" parent="1" edge="1">
          <mxGeometry width="50" height="50" relative="1" as="geometry">
            <mxPoint x="780" y="260" as="sourcePoint" />
            <mxPoint x="220" y="250" as="targetPoint" />
            <Array as="points">
              <mxPoint x="780" y="300" />
              <mxPoint x="220" y="300" />
            </Array>
          </mxGeometry>
        </mxCell>
        <mxCell id="7sq4FqvOHcfhc_V7E_Is-10" value="" style="endArrow=classic;html=1;rounded=0;" parent="1" edge="1">
          <mxGeometry width="50" height="50" relative="1" as="geometry">
            <mxPoint x="420" y="300" as="sourcePoint" />
            <mxPoint x="420" y="250" as="targetPoint" />
          </mxGeometry>
        </mxCell>
        <mxCell id="7sq4FqvOHcfhc_V7E_Is-11" value="修改设计" style="text;html=1;align=center;verticalAlign=middle;resizable=0;points=[];autosize=1;strokeColor=none;fillColor=none;" parent="1" vertex="1">
          <mxGeometry x="220" y="260" width="70" height="30" as="geometry" />
        </mxCell>
        <mxCell id="7sq4FqvOHcfhc_V7E_Is-12" value="修改代码" style="text;html=1;align=center;verticalAlign=middle;resizable=0;points=[];autosize=1;strokeColor=none;fillColor=none;" parent="1" vertex="1">
          <mxGeometry x="420" y="260" width="70" height="30" as="geometry" />
        </mxCell>
        <mxCell id="R3Los7oFmgDTBBbwaGdE-1" value="rs485common::RecvData()&lt;div&gt;进行接收&lt;/div&gt;" style="text;html=1;align=center;verticalAlign=middle;resizable=0;points=[];autosize=1;strokeColor=none;fillColor=none;" vertex="1" parent="1">
          <mxGeometry x="230" y="160" width="170" height="40" as="geometry" />
        </mxCell>
        <mxCell id="R3Los7oFmgDTBBbwaGdE-2" value="必须传入一个明确的接收长度" style="text;html=1;align=center;verticalAlign=middle;resizable=0;points=[];autosize=1;strokeColor=none;fillColor=none;" vertex="1" parent="1">
          <mxGeometry x="430" y="160" width="180" height="30" as="geometry" />
        </mxCell>
        <mxCell id="R3Los7oFmgDTBBbwaGdE-3" value="任意命令发送时,&amp;nbsp;&lt;div&gt;接收消息长度不确定&lt;/div&gt;" style="text;html=1;align=center;verticalAlign=middle;resizable=0;points=[];autosize=1;strokeColor=none;fillColor=none;" vertex="1" parent="1">
          <mxGeometry x="635" y="153" width="130" height="40" as="geometry" />
        </mxCell>
        <mxCell id="R3Los7oFmgDTBBbwaGdE-4" value="使用下位scc2698read" style="text;html=1;align=center;verticalAlign=middle;resizable=0;points=[];autosize=1;strokeColor=none;fillColor=none;" vertex="1" parent="1">
          <mxGeometry x="270" y="270" width="140" height="30" as="geometry" />
        </mxCell>
        <mxCell id="R3Los7oFmgDTBBbwaGdE-5" value="设计欠缺:&amp;nbsp;应提前考虑到“未知长度”“不确定情况”的实际场景" style="text;html=1;align=center;verticalAlign=middle;resizable=0;points=[];autosize=1;strokeColor=none;fillColor=none;" vertex="1" parent="1">
          <mxGeometry x="160" y="320" width="330" height="30" as="geometry" />
        </mxCell>
        <mxCell id="R3Los7oFmgDTBBbwaGdE-6" value="" style="endArrow=classic;html=1;rounded=0;" edge="1" parent="1">
          <mxGeometry width="50" height="50" relative="1" as="geometry">
            <mxPoint x="160" y="480" as="sourcePoint" />
            <mxPoint x="780" y="480" as="targetPoint" />
          </mxGeometry>
        </mxCell>
        <mxCell id="R3Los7oFmgDTBBbwaGdE-7" value="" style="rounded=0;whiteSpace=wrap;html=1;fillColor=#dae8fc;strokeColor=#6c8ebf;" vertex="1" parent="1">
          <mxGeometry x="170" y="460" width="120" height="20" as="geometry" />
        </mxCell>
        <mxCell id="R3Los7oFmgDTBBbwaGdE-8" value="" style="rounded=0;whiteSpace=wrap;html=1;fillColor=#f5f5f5;fontColor=#333333;strokeColor=#666666;" vertex="1" parent="1">
          <mxGeometry x="300" y="480" width="90" height="20" as="geometry" />
        </mxCell>
        <mxCell id="R3Los7oFmgDTBBbwaGdE-10" value="" style="rounded=0;whiteSpace=wrap;html=1;fillColor=#dae8fc;strokeColor=#6c8ebf;" vertex="1" parent="1">
          <mxGeometry x="400" y="460" width="120" height="20" as="geometry" />
        </mxCell>
        <mxCell id="R3Los7oFmgDTBBbwaGdE-11" value="" style="rounded=0;whiteSpace=wrap;html=1;fillColor=#f8cecc;strokeColor=#b85450;" vertex="1" parent="1">
          <mxGeometry x="530" y="480" width="70" height="20" as="geometry" />
        </mxCell>
        <mxCell id="R3Los7oFmgDTBBbwaGdE-12" value="" style="endArrow=classic;html=1;rounded=0;" edge="1" parent="1">
          <mxGeometry width="50" height="50" relative="1" as="geometry">
            <mxPoint x="160" y="590" as="sourcePoint" />
            <mxPoint x="780" y="590" as="targetPoint" />
          </mxGeometry>
        </mxCell>
        <mxCell id="R3Los7oFmgDTBBbwaGdE-13" value="" style="rounded=0;whiteSpace=wrap;html=1;fillColor=#dae8fc;strokeColor=#6c8ebf;" vertex="1" parent="1">
          <mxGeometry x="170" y="570" width="120" height="20" as="geometry" />
        </mxCell>
        <mxCell id="R3Los7oFmgDTBBbwaGdE-14" value="" style="rounded=0;whiteSpace=wrap;html=1;fillColor=#f5f5f5;fontColor=#333333;strokeColor=#666666;" vertex="1" parent="1">
          <mxGeometry x="300" y="590" width="90" height="20" as="geometry" />
        </mxCell>
        <mxCell id="R3Los7oFmgDTBBbwaGdE-15" value="" style="rounded=0;whiteSpace=wrap;html=1;fillColor=#dae8fc;strokeColor=#6c8ebf;" vertex="1" parent="1">
          <mxGeometry x="420" y="570" width="120" height="20" as="geometry" />
        </mxCell>
        <mxCell id="R3Los7oFmgDTBBbwaGdE-17" value="" style="rounded=0;whiteSpace=wrap;html=1;fillColor=#d5e8d4;strokeColor=#82b366;" vertex="1" parent="1">
          <mxGeometry x="400" y="570" width="10" height="20" as="geometry" />
        </mxCell>
        <mxCell id="R3Los7oFmgDTBBbwaGdE-19" value="" style="rounded=0;whiteSpace=wrap;html=1;fillColor=#f5f5f5;fontColor=#333333;strokeColor=#666666;" vertex="1" parent="1">
          <mxGeometry x="550" y="590" width="90" height="20" as="geometry" />
        </mxCell>
        <mxCell id="R3Los7oFmgDTBBbwaGdE-20" value="" style="rounded=0;whiteSpace=wrap;html=1;fillColor=#d5e8d4;strokeColor=#82b366;" vertex="1" parent="1">
          <mxGeometry x="650" y="570" width="10" height="20" as="geometry" />
        </mxCell>
        <mxCell id="R3Los7oFmgDTBBbwaGdE-21" value="EOT" style="text;html=1;align=center;verticalAlign=middle;resizable=0;points=[];autosize=1;strokeColor=none;fillColor=none;" vertex="1" parent="1">
          <mxGeometry x="380" y="540" width="50" height="30" as="geometry" />
        </mxCell>
        <mxCell id="R3Los7oFmgDTBBbwaGdE-22" value="EOT" style="text;html=1;align=center;verticalAlign=middle;resizable=0;points=[];autosize=1;strokeColor=none;fillColor=none;" vertex="1" parent="1">
          <mxGeometry x="630" y="540" width="50" height="30" as="geometry" />
        </mxCell>
        <mxCell id="R3Los7oFmgDTBBbwaGdE-23" value="发送查询消息" style="text;html=1;align=center;verticalAlign=middle;resizable=0;points=[];autosize=1;strokeColor=none;fillColor=none;" vertex="1" parent="1">
          <mxGeometry x="180" y="430" width="100" height="30" as="geometry" />
        </mxCell>
        <mxCell id="R3Los7oFmgDTBBbwaGdE-24" value="应答数据" style="text;html=1;align=center;verticalAlign=middle;resizable=0;points=[];autosize=1;strokeColor=none;fillColor=none;" vertex="1" parent="1">
          <mxGeometry x="310" y="495" width="70" height="30" as="geometry" />
        </mxCell>
        <mxCell id="R3Los7oFmgDTBBbwaGdE-25" value="再次发送查询消息" style="text;html=1;align=center;verticalAlign=middle;resizable=0;points=[];autosize=1;strokeColor=none;fillColor=none;" vertex="1" parent="1">
          <mxGeometry x="395" y="430" width="120" height="30" as="geometry" />
        </mxCell>
        <mxCell id="R3Los7oFmgDTBBbwaGdE-26" value="错误应答数据&lt;div&gt;行为不确定&lt;/div&gt;" style="text;html=1;align=center;verticalAlign=middle;resizable=0;points=[];autosize=1;strokeColor=none;fillColor=none;" vertex="1" parent="1">
          <mxGeometry x="515" y="495" width="100" height="40" as="geometry" />
        </mxCell>
        <mxCell id="R3Los7oFmgDTBBbwaGdE-27" value="发送查询消息" style="text;html=1;align=center;verticalAlign=middle;resizable=0;points=[];autosize=1;strokeColor=none;fillColor=none;" vertex="1" parent="1">
          <mxGeometry x="180" y="540" width="100" height="30" as="geometry" />
        </mxCell>
        <mxCell id="R3Los7oFmgDTBBbwaGdE-28" value="应答数据" style="text;html=1;align=center;verticalAlign=middle;resizable=0;points=[];autosize=1;strokeColor=none;fillColor=none;" vertex="1" parent="1">
          <mxGeometry x="310" y="605" width="70" height="30" as="geometry" />
        </mxCell>
        <mxCell id="R3Los7oFmgDTBBbwaGdE-29" value="再次发送查询消息" style="text;html=1;align=center;verticalAlign=middle;resizable=0;points=[];autosize=1;strokeColor=none;fillColor=none;" vertex="1" parent="1">
          <mxGeometry x="420" y="540" width="120" height="30" as="geometry" />
        </mxCell>
        <mxCell id="R3Los7oFmgDTBBbwaGdE-30" value="应答数据" style="text;html=1;align=center;verticalAlign=middle;resizable=0;points=[];autosize=1;strokeColor=none;fillColor=none;" vertex="1" parent="1">
          <mxGeometry x="560" y="605" width="70" height="30" as="geometry" />
        </mxCell>
        <mxCell id="R3Los7oFmgDTBBbwaGdE-33" value="&lt;div&gt;异常处理和完整的收发流程（包括结束标志）必须充分考虑。&lt;/div&gt;&lt;div&gt;不能仅凭“一次成功”的经验来判断实现正确&lt;/div&gt;" style="text;html=1;align=center;verticalAlign=middle;resizable=0;points=[];autosize=1;strokeColor=none;fillColor=none;" vertex="1" parent="1">
          <mxGeometry x="140" y="650" width="350" height="40" as="geometry" />
        </mxCell>
      </root>
    </mxGraphModel>
  </diagram>
</mxfile>
